<?xml version="1.0" standalone="no"?>
<!DOCTYPE svg PUBLIC "-//W3C//DTD SVG 20010904//EN"
 "http://www.w3.org/TR/2001/REC-SVG-20010904/DTD/svg10.dtd">
<svg version="1.0" xmlns="http://www.w3.org/2000/svg"
 width="3000.000000pt" height="3000.000000pt" viewBox="0 0 3000.000000 3000.000000"
 preserveAspectRatio="xMidYMid meet">

<g transform="translate(0.000000,3000.000000) scale(0.100000,-0.100000)"
fill="#000000" stroke="none">
<path d="M19544 22416 c-110 -21 -182 -45 -273 -89 -483 -235 -696 -810 -485
-1309 114 -273 355 -486 649 -574 110 -32 328 -44 452 -24 314 50 590 257 736
548 l51 103 411 -3 c387 -3 412 -4 450 -23 26 -13 46 -33 58 -57 17 -35 17
-41 3 -91 -8 -29 -61 -126 -117 -217 -116 -187 -2732 -4373 -2915 -4665 -135
-214 -205 -294 -302 -343 -210 -105 -442 -41 -523 144 -14 31 -142 817 -439
2702 -511 3237 -465 2950 -491 3014 -62 145 -172 266 -301 332 -139 70 -131
69 -663 73 -318 3 -508 0 -564 -7 -244 -32 -419 -143 -555 -348 -35 -54 -724
-1129 -1532 -2391 -1005 -1570 -1485 -2311 -1520 -2347 -102 -105 -280 -194
-390 -194 -107 0 -195 59 -227 155 -12 33 -95 806 -262 2434 -135 1312 -250
2408 -255 2434 -29 142 -128 232 -281 256 -41 7 -406 11 -1020 11 -813 0 -963
-2 -1005 -15 -79 -23 -134 -96 -134 -177 0 -24 205 -1892 454 -4152 l455
-4109 39 -81 c45 -94 107 -168 164 -197 38 -19 54 -20 441 -17 389 4 404 4
472 27 215 72 412 228 553 438 32 48 924 1438 1982 3088 1058 1650 1934 3014
1948 3030 40 50 93 85 128 85 43 0 100 -49 114 -98 6 -21 96 -590 201 -1267
594 -3841 770 -4965 784 -5005 52 -148 189 -263 346 -290 44 -8 262 -10 699
-8 615 4 637 5 713 26 164 45 373 180 487 312 36 42 2586 4091 4773 7579 165
263 188 316 189 446 0 98 -13 149 -55 211 -59 88 -154 142 -289 164 -40 6
-439 10 -1088 10 l-1025 0 -30 48 c-50 79 -184 210 -278 273 -100 65 -202 111
-315 140 -100 26 -318 34 -418 15z"/>
<path d="M22530 10951 c-288 -64 -453 -227 -511 -506 -17 -84 -19 -149 -19
-960 0 -809 2 -876 19 -960 54 -260 209 -425 467 -497 68 -19 105 -22 259 -22
154 0 191 3 259 22 258 72 413 237 467 497 17 84 19 151 19 960 0 809 -2 876
-19 960 -54 260 -211 428 -467 496 -115 31 -356 36 -474 10z m350 -425 c55
-28 96 -88 110 -168 7 -37 10 -347 8 -910 l-3 -854 -30 -60 c-25 -49 -39 -64
-83 -87 -47 -25 -64 -29 -137 -29 -73 0 -90 4 -137 29 -44 23 -58 38 -83 87
l-30 60 -3 854 c-2 563 1 873 8 910 14 75 55 140 105 166 76 39 196 40 275 2z"/>
<path d="M3880 10920 c0 -5 70 -647 155 -1425 85 -779 155 -1425 155 -1436 0
-18 10 -19 330 -19 182 0 330 2 330 5 0 26 222 1941 226 1944 2 2 4 -4 4 -15
0 -22 207 -1853 216 -1901 l5 -33 304 0 305 0 5 23 c2 12 72 645 155 1407 83
762 153 1402 156 1423 l6 37 -215 0 -214 0 -6 -47 c-3 -27 -52 -524 -109
-1107 -64 -657 -106 -1047 -110 -1030 -6 24 -228 2138 -228 2173 0 8 -74 11
-269 11 l-269 0 -6 -37 c-3 -21 -56 -517 -116 -1103 -61 -586 -112 -1069 -114
-1075 -3 -5 -5 4 -6 20 -1 17 -49 516 -108 1110 l-107 1080 -238 3 c-154 1
-237 -1 -237 -8z"/>
<path d="M6740 9485 l0 -1445 670 0 670 0 0 205 0 205 -425 0 -425 0 0 445 0
445 340 0 340 0 0 205 0 205 -340 0 -340 0 0 385 0 385 425 0 425 0 0 205 0
205 -670 0 -670 0 0 -1445z"/>
<path d="M8995 10918 c-4 -12 -505 -2861 -505 -2872 0 -4 103 -6 229 -6 l228
0 23 148 c13 81 32 208 44 282 l21 135 278 3 c152 1 277 0 277 -2 0 -9 81
-523 85 -543 l5 -23 245 0 c190 0 245 3 244 13 0 6 -114 656 -252 1442 l-252
1430 -333 3 c-261 2 -333 0 -337 -10z m427 -1210 c59 -386 106 -703 104 -705
-2 -2 -99 -2 -217 -1 l-214 3 105 703 c57 386 107 702 110 702 3 0 53 -316
112 -702z"/>
<path d="M10680 9485 l0 -1445 650 0 650 0 0 205 0 205 -405 0 -405 0 0 1240
0 1240 -245 0 -245 0 0 -1445z"/>
<path d="M12010 10725 l0 -205 255 0 255 0 0 -1240 0 -1240 245 0 245 0 0
1240 0 1240 255 0 255 0 0 205 0 205 -755 0 -755 0 0 -205z"/>
<path d="M14020 9485 l0 -1445 245 0 245 0 0 650 0 650 265 0 265 0 0 -650 0
-650 245 0 245 0 0 1445 0 1445 -245 0 -245 0 0 -590 0 -590 -265 0 -265 0 0
590 0 590 -245 0 -245 0 0 -1445z"/>
<path d="M17140 9486 l0 -1446 245 0 245 0 0 584 0 584 218 5 c242 5 294 14
422 75 104 49 206 151 255 255 61 127 75 223 75 517 0 275 -7 343 -46 462 -64
193 -204 320 -423 381 -71 20 -104 21 -533 25 l-458 3 0 -1445z m854 1004 c50
-24 76 -54 97 -115 19 -56 20 -563 1 -617 -18 -52 -47 -85 -95 -110 -37 -20
-61 -23 -204 -26 l-163 -4 0 452 0 453 159 -5 c138 -5 165 -8 205 -28z"/>
<path d="M19120 9485 l0 -1445 245 0 245 0 0 1445 0 1445 -245 0 -245 0 0
-1445z"/>
<path d="M20250 9485 l0 -1445 650 0 650 0 0 205 0 205 -405 0 -405 0 0 1240
0 1240 -245 0 -245 0 0 -1445z"/>
<path d="M23940 10725 l0 -205 255 0 255 0 0 -1240 0 -1240 245 0 245 0 0
1240 0 1240 255 0 255 0 0 205 0 205 -755 0 -755 0 0 -205z"/>
</g>
</svg>
